<?xml version="1.0" standalone="no"?>
<!DOCTYPE svg PUBLIC "-//W3C//DTD SVG 20010904//EN"
 "http://www.w3.org/TR/2001/REC-SVG-20010904/DTD/svg10.dtd">
<svg version="1.0" xmlns="http://www.w3.org/2000/svg"
 width="172.000000pt" height="168.000000pt" viewBox="0 0 172.000000 168.000000"
 preserveAspectRatio="xMidYMid meet">

<g transform="translate(0.000000,168.000000) scale(0.100000,-0.100000)"
fill="#000000" stroke="none">
<path d="M1020 1380 c0 -17 -7 -20 -40 -20 -33 0 -40 -3 -40 -20 0 -13 -7 -20
-20 -20 -13 0 -20 -7 -20 -20 0 -13 -7 -20 -20 -20 -17 0 -20 -7 -20 -39 0
-33 -4 -40 -22 -43 -21 -3 -23 -9 -26 -65 -3 -55 -6 -63 -22 -63 -13 0 -20 -7
-20 -20 0 -17 -7 -20 -40 -20 -33 0 -40 3 -40 20 0 17 -7 20 -45 20 -38 0 -45
3 -45 20 0 17 -7 20 -40 20 -33 0 -40 -3 -40 -20 0 -13 -7 -20 -20 -20 -17 0
-20 -7 -20 -40 0 -33 -3 -40 -20 -40 -13 0 -20 -7 -20 -20 0 -13 -7 -20 -20
-20 -17 0 -20 -7 -20 -45 0 -38 3 -45 20 -45 13 0 20 -7 20 -20 0 -17 -7 -20
-45 -20 -38 0 -45 -3 -45 -20 0 -13 -7 -20 -20 -20 -13 0 -20 -7 -20 -20 0
-17 -7 -20 -40 -20 -33 0 -40 -3 -40 -20 0 -17 7 -20 40 -20 33 0 40 3 40 20
0 17 7 20 45 20 38 0 45 -3 45 -20 0 -13 7 -20 20 -20 17 0 20 -7 20 -40 0
-55 27 -55 36 0 5 30 11 40 25 40 37 0 20 28 -21 35 -39 7 -40 8 -40 46 0 39
0 39 40 39 33 0 40 3 40 20 0 17 -7 20 -40 20 l-40 0 0 45 c0 38 3 45 20 45
13 0 20 7 20 20 0 13 7 20 20 20 17 0 20 7 20 40 l0 40 40 0 c33 0 40 -3 40
-20 0 -17 7 -20 45 -20 38 0 45 -3 45 -20 0 -13 7 -20 20 -20 13 0 20 -7 20
-20 0 -13 7 -20 20 -20 17 0 20 7 20 40 0 33 3 40 20 40 13 0 20 -7 20 -20 0
-15 7 -20 25 -20 23 0 25 -4 25 -40 0 -31 4 -40 18 -40 15 0 17 8 14 60 -3 51
-7 60 -23 60 -16 0 -19 7 -19 45 0 38 3 45 20 45 17 0 20 7 20 40 0 33 3 40
20 40 17 0 20 7 20 40 l0 40 45 0 c41 0 45 2 45 25 0 18 5 25 20 25 11 0 20 7
20 15 0 11 12 15 45 15 38 0 45 -3 45 -20 0 -13 7 -20 20 -20 13 0 20 -7 20
-20 0 -18 -7 -20 -60 -20 -53 0 -60 -2 -60 -20 0 -17 7 -20 40 -20 33 0 40 -3
40 -20 0 -13 7 -20 20 -20 15 0 20 -7 20 -25 0 -25 -1 -25 -79 -25 l-78 0 -7
-31 c-3 -17 -6 -48 -6 -69 0 -66 11 -100 31 -100 12 0 19 -7 19 -20 0 -13 7
-20 20 -20 13 0 20 -7 20 -20 0 -13 7 -20 20 -20 13 0 20 -7 20 -20 0 -13 7
-20 20 -20 15 0 20 -7 20 -25 0 -18 5 -25 20 -25 17 0 20 -7 20 -40 0 -32 4
-40 19 -40 24 0 31 -35 31 -161 0 -99 0 -99 -25 -99 -18 0 -25 -5 -25 -20 0
-18 -7 -20 -60 -20 -53 0 -60 -2 -60 -20 0 -18 -7 -20 -65 -20 -58 0 -65 -2
-65 -20 0 -19 -7 -20 -150 -20 -143 0 -150 1 -150 20 0 13 -7 20 -20 20 -13 0
-20 7 -20 20 0 13 -7 20 -20 20 -13 0 -20 7 -20 20 0 17 -7 20 -40 20 -33 0
-40 3 -40 20 0 18 -7 20 -65 20 l-65 0 0 45 c0 38 -3 45 -20 45 -13 0 -20 7
-20 20 0 13 -7 20 -20 20 -13 0 -20 7 -20 20 0 17 -7 20 -40 20 -33 0 -40 -3
-40 -20 0 -13 7 -20 20 -20 17 0 20 -7 20 -40 0 -33 -3 -40 -20 -40 -13 0 -20
-7 -20 -20 0 -13 7 -20 20 -20 13 0 20 -7 20 -20 0 -17 7 -20 39 -20 33 0 40
-4 43 -22 2 -15 11 -24 26 -26 14 -2 22 -10 22 -23 0 -16 7 -19 40 -19 33 0
40 -3 40 -20 0 -18 -7 -20 -85 -20 -77 0 -85 -2 -85 -19 0 -13 8 -21 23 -23
14 -2 21 -9 21 -21 -2 -16 27 -17 477 -17 472 0 479 0 479 20 0 13 7 20 20 20
13 0 20 7 20 20 0 18 -7 20 -60 20 -53 0 -60 2 -60 20 0 13 7 20 20 20 13 0
20 7 20 20 0 13 7 20 19 20 13 0 21 8 23 23 2 14 11 23 26 25 21 3 22 7 22
102 0 95 -1 99 -22 102 -19 2 -24 10 -26 46 -3 34 -7 42 -23 42 -16 0 -19 7
-19 40 0 33 -3 40 -20 40 -13 0 -20 7 -20 20 0 13 -7 20 -20 20 -13 0 -20 7
-20 20 0 13 -7 20 -19 20 -13 0 -21 8 -23 23 -2 14 -11 23 -25 25 -15 2 -23
10 -23 23 0 12 -7 19 -20 19 -18 0 -20 7 -20 60 0 57 1 60 25 60 18 0 25 -5
25 -20 0 -19 7 -20 105 -20 98 0 105 -1 105 -20 0 -18 7 -20 60 -20 53 0 60 2
60 20 0 13 7 20 20 20 13 0 20 7 20 20 0 13 -7 20 -20 20 -13 0 -20 7 -20 20
0 13 -7 20 -20 20 -13 0 -20 -7 -20 -20 0 -13 7 -20 20 -20 14 0 20 -7 20 -21
0 -19 -4 -21 -31 -15 -17 3 -44 6 -60 6 -22 0 -29 5 -29 20 0 13 -7 20 -20 20
-11 0 -20 7 -20 15 0 8 9 15 20 15 15 0 20 7 20 25 0 18 5 25 20 25 15 0 20
-7 20 -26 0 -33 33 -30 38 4 3 17 -2 22 -17 22 -18 0 -21 6 -21 40 0 36 -2 40
-25 40 -18 0 -25 5 -25 20 0 13 -7 20 -20 20 -13 0 -20 7 -20 20 0 17 -7 20
-40 20 -33 0 -40 3 -40 20 0 18 -7 20 -85 20 -78 0 -85 -2 -85 -20z"/>
<path d="M777 943 c-14 -13 -6 -33 13 -33 13 0 20 7 20 20 0 19 -20 27 -33 13z"/>
<path d="M812 863 c2 -27 8 -39 21 -41 14 -3 17 4 17 37 0 35 -3 41 -21 41
-17 0 -20 -5 -17 -37z"/>
<path d="M900 880 c0 -13 7 -20 20 -20 11 0 20 -7 20 -15 0 -8 9 -15 20 -15
11 0 20 7 20 15 0 8 -9 15 -20 15 -13 0 -20 7 -20 20 0 13 -7 20 -20 20 -13 0
-20 -7 -20 -20z"/>
<path d="M860 800 c0 -13 7 -20 20 -20 13 0 20 -7 20 -20 0 -13 7 -20 20 -20
13 0 20 -7 20 -20 0 -13 7 -20 20 -20 13 0 20 7 20 20 0 13 -7 20 -20 20 -13
0 -20 7 -20 20 0 14 -7 20 -21 20 -12 0 -23 8 -26 20 -3 11 -12 20 -19 20 -8
0 -14 -9 -14 -20z"/>
<path d="M980 800 c0 -13 7 -20 20 -20 13 0 20 7 20 20 0 13 -7 20 -20 20 -13
0 -20 -7 -20 -20z"/>
<path d="M190 671 c0 -14 5 -18 20 -14 11 3 20 12 20 19 0 8 -9 14 -20 14 -13
0 -20 -7 -20 -19z"/>
<path d="M480 590 c0 -18 6 -20 40 -18 31 1 40 6 40 20 0 14 -8 18 -40 18 -34
0 -40 -3 -40 -20z"/>
<path d="M569 568 c-8 -27 -5 -38 12 -38 12 0 19 7 19 20 0 11 -7 20 -15 20
-8 0 -15 -1 -16 -2z"/>
<path d="M610 509 c0 -15 8 -19 35 -19 24 0 35 5 35 15 0 8 -6 16 -12 16 -7 1
-23 3 -35 4 -17 2 -23 -3 -23 -16z"/>
<path d="M690 465 c0 -8 8 -15 18 -15 10 0 19 7 19 15 0 8 -9 15 -19 15 -10 0
-18 -7 -18 -15z"/>
<path d="M690 381 c0 -14 5 -18 18 -14 10 2 19 11 19 19 0 8 -9 14 -19 14 -11
0 -18 -7 -18 -19z"/>
</g>
</svg>
